<svg width="203" height="97" viewBox="0 0 203 97" fill="none" xmlns="http://www.w3.org/2000/svg">
<g clip-path="url(#clip0_1311_6420)">
<path d="M0 51.9428C0 50.6289 0.399063 49.7796 1.19719 49.3951L21.6452 39.589C21.9644 39.4287 22.4433 39.3486 23.0818 39.3486C23.7203 39.3486 24.3588 39.6371 24.9973 40.2139C25.6358 40.7586 25.9551 41.4957 25.9551 42.425V44.2037C25.9551 45.5495 25.3484 46.5269 24.1353 47.1358L11.7325 53.0003C13.1372 53.7054 14.1907 54.2181 14.893 54.5385L18.8198 56.4132C19.3945 56.7017 20.2724 57.1342 21.4536 57.7111C22.6348 58.288 23.5128 58.7205 24.0874 59.009C25.3325 59.6499 25.9551 60.5792 25.9551 61.7969V63.5756C25.9551 64.5049 25.6358 65.258 24.9973 65.8348C24.3588 66.3796 23.7203 66.652 23.0818 66.652C22.4433 66.652 21.9644 66.5719 21.6452 66.4117L1.19719 56.5574C0.399063 56.1729 0 55.3396 0 54.0578V51.9428Z" fill="white"/>
<path d="M28.4149 78C27.0745 78 26.4043 77.5201 26.4043 76.5604C26.4043 76.2406 26.4841 75.8566 26.6436 75.4089C27.4734 72.4018 28.8458 68.1791 30.7606 62.7409C37.9095 42.6513 41.7232 32.0467 42.2019 30.9271C42.6806 29.8074 43.1753 29.0397 43.6859 28.6238C44.2285 28.2079 44.9785 28 45.9359 28H51.5847C52.9251 28 53.5953 28.4798 53.5953 29.4395C53.5953 29.7594 53.5155 30.1433 53.356 30.5912C52.3027 34.302 49.7816 41.7716 45.7923 53C41.7072 64.8043 38.9945 72.2738 37.6541 75.4089C37.2711 76.3045 36.8083 76.9603 36.2659 77.3762C35.7552 77.792 35.0212 78 34.0637 78H28.4149Z" fill="#BBBBBB"/>
<path d="M80 51.9428V54.0578C80 55.3396 79.601 56.1729 78.8028 56.5575L58.3548 66.4117C58.0356 66.5719 57.5567 66.652 56.9182 66.652C56.2796 66.652 55.6412 66.3796 55.0027 65.8348C54.3641 65.258 54.0449 64.5049 54.0449 63.5756V61.7971C54.0449 60.5793 54.6675 59.6499 55.9126 59.009C56.4872 58.7205 57.3651 58.288 58.5464 57.7111C59.7276 57.1342 60.6055 56.7017 61.1802 56.4132L65.1069 54.5385C65.8093 54.2181 66.8628 53.7054 68.2675 53.0003L55.8647 47.1358C54.6516 46.5269 54.0449 45.5495 54.0449 44.2037V42.425C54.0449 41.4957 54.3641 40.7586 55.0027 40.2139C55.6412 39.6371 56.2796 39.3486 56.9182 39.3486C57.5567 39.3486 58.0356 39.4287 58.3548 39.589L78.8028 49.3951C79.601 49.7796 80 50.6289 80 51.9428Z" fill="white"/>
</g>
<path d="M156.289 28.1562C155.586 28.1562 154.987 27.9688 154.492 27.5938C153.997 27.2188 153.622 26.7083 153.367 26.0625C153.112 25.4115 152.984 24.6771 152.984 23.8594V23.6953C152.984 22.8359 153.112 22.0833 153.367 21.4375C153.628 20.7917 154.005 20.2891 154.5 19.9297C154.995 19.5703 155.596 19.3906 156.305 19.3906C157.003 19.3906 157.573 19.5755 158.016 19.9453C158.458 20.3151 158.805 20.8203 159.055 21.4609C159.305 22.0964 159.479 22.8255 159.578 23.6484V23.9688C159.505 24.5521 159.388 25.0964 159.227 25.6016C159.07 26.1068 158.862 26.5521 158.602 26.9375C158.341 27.3177 158.021 27.6172 157.641 27.8359C157.26 28.0495 156.81 28.1562 156.289 28.1562ZM156.875 26.3281C157.286 26.3281 157.615 26.2396 157.859 26.0625C158.104 25.8854 158.289 25.6406 158.414 25.3281C158.539 25.0156 158.615 24.6615 158.641 24.2656V23.3438C158.625 23.0156 158.581 22.7214 158.508 22.4609C158.435 22.1953 158.328 21.9714 158.188 21.7891C158.052 21.6016 157.875 21.4609 157.656 21.3672C157.443 21.2682 157.188 21.2188 156.891 21.2188C156.5 21.2188 156.182 21.3281 155.938 21.5469C155.698 21.7656 155.523 22.0625 155.414 22.4375C155.31 22.8073 155.258 23.2266 155.258 23.6953V23.8594C155.258 24.3073 155.31 24.7188 155.414 25.0938C155.518 25.4688 155.688 25.7682 155.922 25.9922C156.161 26.2161 156.479 26.3281 156.875 26.3281ZM158.328 31.25V21.2812L158.617 19.5469H160.609V31.25H158.328ZM166.281 28.1562C165.406 28.1562 164.654 27.9714 164.023 27.6016C163.398 27.2318 162.919 26.7396 162.586 26.125C162.253 25.5052 162.086 24.8177 162.086 24.0625V23.7578C162.086 22.9089 162.245 22.1562 162.562 21.5C162.885 20.8385 163.341 20.3229 163.93 19.9531C164.523 19.5781 165.224 19.3906 166.031 19.3906C166.849 19.3906 167.534 19.5651 168.086 19.9141C168.638 20.2578 169.055 20.7422 169.336 21.3672C169.617 21.987 169.758 22.7135 169.758 23.5469V24.5156H163.062V22.9609H167.523V22.7812C167.518 22.4844 167.464 22.2188 167.359 21.9844C167.255 21.7448 167.094 21.5573 166.875 21.4219C166.656 21.2865 166.37 21.2188 166.016 21.2188C165.625 21.2188 165.307 21.3307 165.062 21.5547C164.818 21.7734 164.638 22.0729 164.523 22.4531C164.409 22.8333 164.352 23.2682 164.352 23.7578V24.0625C164.352 24.5052 164.432 24.8958 164.594 25.2344C164.76 25.5729 165 25.8385 165.312 26.0312C165.625 26.224 165.997 26.3203 166.43 26.3203C166.841 26.3203 167.221 26.2448 167.57 26.0938C167.919 25.9375 168.219 25.6979 168.469 25.375L169.578 26.625C169.312 27.0104 168.904 27.362 168.352 27.6797C167.805 27.9974 167.115 28.1562 166.281 28.1562ZM173.992 28.1562C173.294 28.1562 172.698 27.9714 172.203 27.6016C171.714 27.2266 171.339 26.7161 171.078 26.0703C170.818 25.4245 170.688 24.6927 170.688 23.875V23.7109C170.688 22.8516 170.818 22.099 171.078 21.4531C171.339 20.8021 171.716 20.2969 172.211 19.9375C172.706 19.5729 173.305 19.3906 174.008 19.3906C174.674 19.3906 175.232 19.5781 175.68 19.9531C176.128 20.3229 176.479 20.8307 176.734 21.4766C176.99 22.1172 177.167 22.8464 177.266 23.6641V23.9766C177.167 24.7578 176.987 25.4635 176.727 26.0938C176.471 26.724 176.12 27.2266 175.672 27.6016C175.224 27.9714 174.664 28.1562 173.992 28.1562ZM174.57 26.3125C174.951 26.3125 175.263 26.2266 175.508 26.0547C175.758 25.8828 175.948 25.6432 176.078 25.3359C176.214 25.0286 176.294 24.6771 176.32 24.2812V23.3672C176.305 23.0339 176.258 22.737 176.18 22.4766C176.102 22.2109 175.992 21.987 175.852 21.8047C175.711 21.6224 175.534 21.4818 175.32 21.3828C175.112 21.2839 174.867 21.2344 174.586 21.2344C174.195 21.2344 173.88 21.3438 173.641 21.5625C173.401 21.7812 173.227 22.0781 173.117 22.4531C173.013 22.8229 172.961 23.2422 172.961 23.7109V23.875C172.961 24.3281 173.013 24.7396 173.117 25.1094C173.221 25.474 173.391 25.7656 173.625 25.9844C173.859 26.2031 174.174 26.3125 174.57 26.3125ZM176.258 28L176.031 26.1406V16H178.312V28H176.258ZM182.344 28H180.07V19.5469H182.219L182.344 21.4297V28ZM184.828 21.6719C184.714 21.6562 184.578 21.6432 184.422 21.6328C184.271 21.6172 184.135 21.6094 184.016 21.6094C183.599 21.6094 183.255 21.6771 182.984 21.8125C182.714 21.9479 182.51 22.1432 182.375 22.3984C182.245 22.6536 182.174 22.9688 182.164 23.3438L181.703 23.1875C181.703 22.4531 181.797 21.8021 181.984 21.2344C182.172 20.6615 182.448 20.2109 182.812 19.8828C183.182 19.5547 183.63 19.3906 184.156 19.3906C184.276 19.3906 184.404 19.401 184.539 19.4219C184.674 19.4375 184.781 19.4609 184.859 19.4922L184.828 21.6719ZM185.484 23.6953C185.484 22.8724 185.641 22.138 185.953 21.4922C186.266 20.8411 186.719 20.3281 187.312 19.9531C187.911 19.5781 188.635 19.3906 189.484 19.3906C190.344 19.3906 191.07 19.5781 191.664 19.9531C192.263 20.3281 192.716 20.8411 193.023 21.4922C193.336 22.138 193.492 22.8724 193.492 23.6953V23.8594C193.492 24.6771 193.336 25.4115 193.023 26.0625C192.716 26.7135 192.266 27.2266 191.672 27.6016C191.078 27.9714 190.354 28.1562 189.5 28.1562C188.646 28.1562 187.919 27.9714 187.32 27.6016C186.721 27.2266 186.266 26.7135 185.953 26.0625C185.641 25.4115 185.484 24.6771 185.484 23.8594V23.6953ZM187.766 23.8594C187.766 24.3125 187.82 24.7266 187.93 25.1016C188.044 25.4766 188.227 25.776 188.477 26C188.732 26.2188 189.073 26.3281 189.5 26.3281C189.917 26.3281 190.25 26.2188 190.5 26C190.755 25.776 190.94 25.4766 191.055 25.1016C191.169 24.7266 191.227 24.3125 191.227 23.8594V23.6953C191.227 23.2474 191.169 22.8359 191.055 22.4609C190.94 22.0859 190.755 21.7865 190.5 21.5625C190.25 21.3333 189.911 21.2188 189.484 21.2188C189.068 21.2188 188.732 21.3333 188.477 21.5625C188.227 21.7865 188.044 22.0859 187.93 22.4609C187.82 22.8359 187.766 23.2474 187.766 23.6953V23.8594ZM197.125 28H194.852V19.5469H196.984L197.125 21.3516V28ZM196.156 23.5078C196.156 22.6641 196.294 21.9349 196.57 21.3203C196.852 20.7005 197.242 20.224 197.742 19.8906C198.242 19.5573 198.823 19.3906 199.484 19.3906C200.021 19.3906 200.487 19.4948 200.883 19.7031C201.284 19.9115 201.596 20.25 201.82 20.7188C202.049 21.1875 202.164 21.8203 202.164 22.6172V28H199.883V22.6094C199.883 22.25 199.831 21.9714 199.727 21.7734C199.622 21.5755 199.471 21.4375 199.273 21.3594C199.076 21.276 198.831 21.2344 198.539 21.2344C198.247 21.2344 197.992 21.2917 197.773 21.4062C197.555 21.5156 197.372 21.6745 197.227 21.8828C197.081 22.0859 196.971 22.3255 196.898 22.6016C196.826 22.8724 196.789 23.1667 196.789 23.4844L196.156 23.5078Z" fill="white"/>
<path d="M114.875 56.128C112.451 56.128 110.519 55.876 109.079 55.372C107.639 54.844 106.595 54.124 105.947 53.212C105.299 52.3 104.975 51.256 104.975 50.08C104.975 48.832 105.299 47.764 105.947 46.876C106.595 45.964 107.639 45.268 109.079 44.788C110.519 44.284 112.451 44.032 114.875 44.032H118.079C120.479 44.032 122.399 44.284 123.839 44.788C125.303 45.268 126.347 45.964 126.971 46.876C127.619 47.764 127.943 48.832 127.943 50.08C127.943 51.256 127.619 52.3 126.971 53.212C126.347 54.124 125.303 54.844 123.839 55.372C122.399 55.876 120.479 56.128 118.079 56.128H114.875ZM114.875 52.456H118.079C119.783 52.456 120.971 52.276 121.643 51.916C122.339 51.532 122.687 50.92 122.687 50.08C122.687 49.288 122.339 48.7 121.643 48.316C120.971 47.908 119.783 47.704 118.079 47.704H114.875C113.171 47.704 111.971 47.908 111.275 48.316C110.579 48.7 110.231 49.288 110.231 50.08C110.231 50.92 110.579 51.532 111.275 51.916C111.971 52.276 113.171 52.456 114.875 52.456ZM113.795 67V41.296H119.123V67H113.795ZM113.795 67V57.352H121.175C123.263 57.352 124.847 57.748 125.927 58.54C127.031 59.332 127.583 60.46 127.583 61.924C127.583 63.484 126.923 64.72 125.603 65.632C124.283 66.544 122.099 67 119.051 67H113.795ZM119.123 63.652H119.555C120.515 63.652 121.211 63.532 121.643 63.292C122.099 63.052 122.327 62.644 122.327 62.068C122.327 61.636 122.159 61.3 121.823 61.06C121.511 60.796 120.983 60.664 120.239 60.664H119.123V63.652ZM129.391 67L130.795 60.7H136.843C135.883 59.404 135.091 57.88 134.467 56.128C133.843 54.352 133.531 52.384 133.531 50.224C133.531 48.016 133.891 46.228 134.611 44.86C135.331 43.492 136.339 42.496 137.635 41.872C138.955 41.224 140.503 40.9 142.279 40.9C144.751 40.9 146.611 41.512 147.859 42.736C149.107 43.936 149.731 45.568 149.731 47.632C149.731 48.928 149.383 50.152 148.687 51.304C147.991 52.432 146.887 53.356 145.375 54.076C143.887 54.772 141.943 55.12 139.543 55.12C139.831 56.08 140.251 57.076 140.803 58.108C141.379 59.116 142.003 59.98 142.675 60.7H149.335L150.739 67H149.731C149.035 67 148.363 66.832 147.715 66.496C147.067 66.136 146.515 65.428 146.059 64.372H134.071C133.615 65.428 133.063 66.136 132.415 66.496C131.767 66.832 131.095 67 130.399 67H129.391ZM138.967 51.232C140.023 51.232 140.959 51.124 141.775 50.908C142.615 50.668 143.275 50.284 143.755 49.756C144.235 49.228 144.475 48.484 144.475 47.524C144.475 46.78 144.247 46.168 143.791 45.688C143.359 45.184 142.759 44.932 141.991 44.932C140.935 44.932 140.143 45.34 139.615 46.156C139.087 46.948 138.823 48.076 138.823 49.54C138.823 49.852 138.835 50.152 138.859 50.44C138.883 50.728 138.919 50.992 138.967 51.232ZM155.635 52.78C154.939 52.78 154.267 52.612 153.619 52.276C152.971 51.916 152.419 51.208 151.963 50.152H147.643V46.48H155.239L156.643 52.78H155.635ZM175.196 69.412C174.26 69.412 173.516 69.172 172.964 68.692C172.412 68.212 171.992 67.648 171.704 67H168.824C166.352 67 164.396 66.712 162.956 66.136C161.516 65.56 160.484 64.612 159.86 63.292C159.236 61.972 158.924 60.172 158.924 57.892V55.948C158.924 53.14 159.224 50.788 159.824 48.892C160.424 46.996 161.264 45.496 162.344 44.392C163.424 43.288 164.696 42.496 166.16 42.016C167.624 41.536 169.22 41.296 170.948 41.296H174.152H174.188C176.468 41.296 178.136 41.776 179.192 42.736C180.248 43.672 180.776 44.884 180.776 46.372C180.776 47.836 180.224 49.084 179.12 50.116C178.016 51.148 176.372 51.664 174.188 51.664C171.908 51.664 170.228 51.184 169.148 50.224C168.092 49.264 167.564 48.004 167.564 46.444C167.564 46.18 167.576 45.94 167.6 45.724C166.472 46.348 165.632 47.452 165.08 49.036C164.528 50.596 164.252 52.768 164.252 55.552V57.892C164.252 59.308 164.384 60.412 164.648 61.204C164.936 61.972 165.416 62.524 166.088 62.86C166.76 63.172 167.696 63.328 168.896 63.328H171.704C171.944 62.728 172.352 62.176 172.928 61.672C173.504 61.168 174.26 60.916 175.196 60.916H176.384L175.412 65.164L176.384 69.412H175.196ZM174.188 48.676C174.788 48.676 175.292 48.496 175.7 48.136C176.132 47.752 176.348 47.2 176.348 46.48C176.348 45.76 176.144 45.22 175.736 44.86C175.352 44.476 174.836 44.284 174.188 44.284C173.516 44.284 172.976 44.476 172.568 44.86C172.16 45.22 171.956 45.76 171.956 46.48C171.956 47.2 172.16 47.752 172.568 48.136C173 48.496 173.54 48.676 174.188 48.676ZM188.9 67L194.876 53.428H190.448V48.964C190.448 47.356 190.16 46.288 189.584 45.76C189.008 45.232 188.036 44.968 186.668 44.968H186.524C186.188 45.736 185.732 46.372 185.156 46.876C184.604 47.356 183.836 47.596 182.852 47.596H181.844L183.248 41.296H186.74C188.948 41.296 190.7 41.56 191.996 42.088C193.292 42.616 194.216 43.444 194.768 44.572C195.344 45.7 195.632 47.14 195.632 48.892V49.396H201.932L194.156 67H188.9Z" fill="white"/>
<defs>
<clipPath id="clip0_1311_6420">
<rect width="80" height="50" fill="white" transform="translate(0 28)"/>
</clipPath>
</defs>
</svg>
